<svg version="1.2" xmlns="http://www.w3.org/2000/svg" viewBox="0 0 350 327" width="350" height="327">
	<title>faq-svg</title>
	<style>
		.s0 { fill: #f2f2f2 } 
		.s1 { fill: #5b81d3 } 
		.s2 { fill: #a0616a } 
		.s3 { fill: #2f2e41 } 
		.s4 { fill: #3f3d56 } 
		.s5 { fill: #cccccc } 
	</style>
	<path id="Layer" fill-rule="evenodd" class="s0" d="m91.2 86.6c0-10.5 8.5-19 19-19h125.8c10.5 0 19 8.5 19 19v126c0 10.5-8.5 19-19 19h-125.8c-10.5 0-19-8.5-19-19zm19.2-16c-8.9 0-16.1 7.3-16.1 16.1v125.7c0 8.9 7.2 16.1 16.1 16.1h87.8c29.6 0 53.7-24 53.7-53.7v-88.1c0-8.8-7.1-16.1-16-16.1z"/>
	<rect id="Layer" class="s0" x="113.1" y="83.7" width="38.4" height="38.4" rx="11"></rect>
	<rect id="Layer" class="s0" x="113.1" y="131.3" width="38.4" height="38.4" rx="11"></rect>
	<rect id="Layer" class="s0" x="113.1" y="178.8" width="38.4" height="38.4" rx="11"></rect>
	<g id="Layer">
		<rect id="Layer" class="s1" x="121.5" y="42.5" width="48.4" height="48.5" rx="14"></rect>
		<rect id="Layer" class="s1" x="191.5" y="102" width="48.4" height="48.5" rx="14"></rect>
		<g id="Layer">
			<path id="Layer" class="s2" d="m174.5 316.1l-4.3-0.1-1.8-17 6.4 0.1z"/>
			<path id="Layer" class="s3" d="m161.6 321.4l6.9-4.7v-3.1l1.5 0.1 4.7 0.3 1 0.2 0.8 10.8h-3.2l-0.5-3-1.5 3-8.7-0.1c-1 0-1.8-0.8-1.8-1.9 0-0.7 0.3-1.3 0.8-1.6z"/>
		</g>
		<g id="Layer">
			<path id="Layer" class="s2" d="m196.6 316.1l-4.3-0.1-2-17 6.4 0.1z"/>
			<path id="Layer" class="s3" d="m183.5 321.4l6.9-4.7 0.1-3.1 1.4 0.1 4.7 0.3 1 0.2 0.9 10.8h-3.2l-0.6-3-1.5 3-8.5-0.1c-1.2 0-2-0.8-2-1.9 0-0.7 0.4-1.3 0.8-1.6z"/>
		</g>
		<path id="Layer" class="s3" d="m157.6 178.2l17.5 0.6 16.6 3.6c0 0-1.7 2 3.8 7.6 0 0 7.5 12.9 2.3 25.5l-2.3 50.1c0 0 6.6 35.4 1.6 46.6l-6.5 0.4-11-46.6-5.4-50.2-2.6 49.4c0 0 9.9 34 3.6 47.4l-7-0.4-12-47c0 0-5.2-54.2-4.4-64.6 0.7-10.2 5.8-22.4 5.8-22.4z"/>
		<g id="Layer">
			<path id="Layer" class="s2" d="m221.9 102.2c0.2 1.2 0.1 2.3-0.5 3.3l-0.4 12.6-6.3-2.9 0.3-8.2c-0.8-0.6-1.5-1.5-1.9-2.6-0.5-2.4 0.9-4.9 3.3-5.5 2.3-0.6 4.8 0.8 5.5 3.3z"/>
			<path id="Layer" class="s4" d="m181.3 128.3c-1.4-1.4-2.1-3.1-2.2-5 0-2.7 1.3-5 3.5-6.3 2.5-1.6 5.7-1.4 8.1 0.4l19.8 14.9 3.5-21.5 7.5 2.5-1.7 27.9c-0.2 2-1.3 3.6-3 4.5-1.8 1-3.8 1-5.5 0l-28.5-16.2q-0.9-0.6-1.5-1.2z"/>
		</g>
		<g id="Layer">
			<path id="Layer" class="s2" d="m151.1 86.9c1.3 2.2 0.6 4.9-1.5 6.2-1 0.6-2.1 0.7-3.2 0.6l-5.5 6-6.5-2.3 8.5-9.3h0.1c0.3-1.1 1-2.1 2-2.7 2.1-1.3 4.9-0.6 6.1 1.5z"/>
			<path id="Layer" class="s4" d="m153.5 132.3l-31.7-8.5c-1.9-0.6-3.3-2-3.8-3.9-0.6-1.8-0.3-3.8 1-5.3l18.4-21.2 7 3.6-12.5 17.8 24.6 3.4c2.9 0.3 5.2 2.4 5.9 5.4 0.7 2.5-0.1 5.1-1.9 6.8-1.4 1.5-3.2 2.2-5.1 2.2q-0.9 0-1.9-0.3z"/>
		</g>
		<path id="Layer" class="s4" d="m198.7 185.6l-44.3 2c-1.2-1.8-0.9-4.6 0.8-8.1 6.5-13.2 1.6-38.1-1.7-51-0.9-3.7 1.6-7.3 5.3-7.6l4.2-0.5 3.8-11.8h13.6l5.6 6.4 9.4 5.9c-1.6 17.8-9.1 43.1 1.5 55.7 2.3 2.8 3 5.8 1.8 9z"/>
		<ellipse id="Layer" class="s2" cx="171.9" cy="95.6" rx="13.2" ry="13.2"/>
		<path id="Layer" class="s3" d="m188.9 100.8q-0.1-0.5-0.4-1.1c-0.4-1.2-2.1-1.7-3.2-0.9-0.1 0 0.3-0.2 1.2 1.6-2.5 7-9.8 10.9-18.9 8.2-2.2-0.6-3.9-2.6-4.1-4.9-0.9 2.7-2 5.3-3.4 7.4q-1.3-0.4-2.3-1c-6 6.3 4.5-15 4.9-17.8 0.3-0.9 0.5-1.7-0.2-2.1 0.1 0.8-1 1.7-1.5 2.3q-0.8-0.1-1.9-0.4c-1-0.1-2.2-4.3-2.9-5.1-0.8-0.9-0.7-2.6-0.1-3.6 0.6-1.2 1.7-2 2.7-2.8 0.8-0.6 1.6-1.2 2.4-1.4 1-0.3 2.9 0.2 3.5 1 3.9-5.3 23.9 0.4 22.1 7 5 9.5 3.4 8.8 2.1 13.6z"/>
		<path id="Layer" class="s3" d="m180.5 82.3l-1-4.6c0-0.4-0.1-0.9 0.2-1.2 0.2-0.5 0.8-0.7 1.2-0.6 0.6 0 1 0.5 1.4 0.6 1.8 0.3 4.2-1.4 4.8 3 0.3 1.9 3.3 2 4.2 3.7 1.1 1.6 1.2 3.8-0.2 5.2-1.1 0.9-2.8 1.1-4.2 0.6-1.4-0.6-2.6-1.6-3.5-2.7-0.9-1.2-1.9-2.4-3-3.4"/>
		<path id="Layer" class="s1" d="m187.5 89.6c-3.6-0.5-6.1-1.9-7.4-3.9-1.6-2.8-0.4-5.8-0.4-5.9l0.8 0.3c-0.1 0-1.1 2.8 0.3 5.2q1.8 2.8 6.8 3.5z"/>
	</g>
	<path id="Layer" fill-rule="evenodd" class="s1" d="m204.4 38.5c-10.6 0-19.3-8.6-19.3-19.2 0.1-10.7 8.7-19.3 19.3-19.3 10.6 0 19.3 8.6 19.3 19.3-0.1 10.6-8.7 19.2-19.3 19.2zm11.6-19.2c0-6.4-5.2-11.6-11.6-11.6-6.4 0-11.6 5.2-11.6 11.6 0 6.4 5.2 11.5 11.6 11.5 6.4 0 11.6-5.1 11.6-11.5z"/>
	<path id="Layer" class="s1" d="m233.9 51.6c-0.9 0-1.8-0.3-2.5-1l-18.1-17c-1.6-1.5-1.7-3.8-0.1-5.5 1.4-1.5 3.8-1.6 5.3-0.1l18.1 17c1.5 1.4 1.6 3.8 0.2 5.3-0.8 0.9-1.8 1.3-2.9 1.3z"/>
	<g id="Layer">
		<path id="Layer" class="s0" d="m315.6 315.7c1.3 0.1 2-1.5 1-2.5l-0.1-0.4c1.3-3.3 5.8-3.2 7.1 0 1.2 2.8 2.7 5.6 3.1 8.5 0.1 1.3 0.1 2.7-0.3 3.9 2.7-5.9 4.2-12.4 4.2-19q0-2.4-0.3-4.9-0.2-2.1-0.6-4c-1.4-7.2-4.7-14-9.2-19.7-2.1-1.2-4-3-5.1-5.3-0.4-0.8-0.7-1.7-0.9-2.5 0.3 0 1-3.9 0.9-4.1 0.3-0.5 0.9-0.7 1.2-1.3 1.9-2.6 4.6-2.1 5.9 1.4 2.9 1.5 2.9 3.9 1.1 6.2-1.1 1.5-1.2 3.5-2.2 5.1q0.1 0.3 0.3 0.4 2.8 3.6 4.9 7.7c-0.4-3 0.1-6.7 1.1-9 1.1-2.7 3.2-4.9 5-7.2 2.3-2.7 6.7-1.6 7 1.9q0 0 0 0.2-0.3 0.2-0.7 0.4c-1.5 1-1 3.3 0.7 3.5l0.2 0.1q-0.3 1.4-0.6 2.9c2.3 9.1-2.7 12.3-9.9 12.6q-0.3 0.1-0.5 0.2 1.2 3 1.7 6.3 0.6 2.8 0.9 5.7 0.2 3.6 0 7.3c0.4-2.7 1.9-5.3 4-6.9 3.2-2.6 7.5-3.6 10.9-5.6 1.6-1.1 3.7 0.2 3.5 2.1v0.1q-0.8 0.3-1.5 0.7-0.4 0.2-0.8 0.5c-1.4 1-1 3.3 0.8 3.6q0.1 0 0.1 0c-0.8 2.1-2.1 3.9-3.6 5.6-1.4 7.9-7.7 8.6-14.5 6.3-0.7 3.3-1.7 6.4-3.1 9.3h-11.5q0-0.1-0.1-0.3 1.6 0.1 3.2-0.3-1.3-1.5-2.6-3 0-0.1 0-0.1-0.7-0.8-1.3-1.6 0-2.5 0.6-4.8z"/>
		<path id="Layer" class="s5" d="m0.7 325.1h348.4c0.3 0 0.7 0.4 0.7 0.8 0 0.4-0.4 0.7-0.7 0.7h-348.4c-0.3 0-0.7-0.3-0.7-0.7 0-0.4 0.4-0.8 0.7-0.8z"/>
	</g>
</svg>