<svg version="1.2" xmlns="http://www.w3.org/2000/svg" viewBox="0 0 300 280" width="300" height="280">
	<title>faq-svg</title>
	<style>
		.s0 { fill: #f2f2f2 } 
		.s1 { fill: #5b81d3 } 
		.s2 { fill: #a0616a } 
		.s3 { fill: #2f2e41 } 
		.s4 { fill: #3f3d56 } 
		.s5 { fill: #cccccc } 
	</style>
	<path id="Layer" fill-rule="evenodd" class="s0" d="m78.2 73.9c0-8.9 7.1-16 16-16h108.4c8.8 0 16 7.1 16 16v108.4c0 8.8-7.2 16-16 16h-108.4c-8.9 0-16-7.2-16-16zm16.4-13.4c-7.6 0-13.8 6.2-13.8 13.8v107.6c0 7.6 6.2 13.8 13.8 13.8h75.3c25.4 0 46-20.6 46-46v-75.4c0-7.6-6.1-13.8-13.7-13.8 0 0-107.6 0-107.6 0z"/>
	<rect id="Layer" class="s0" x="96.9" y="71.7" width="32.9" height="32.9" rx="9"></rect>
	<rect id="Layer" class="s0" x="96.9" y="112.4" width="32.9" height="32.9" rx="9"></rect>
	<rect id="Layer" class="s0" x="96.9" y="153.1" width="32.9" height="32.9" rx="9"></rect>
	<g id="Layer">
		<rect id="Layer" class="s1" x="104.1" y="36.4" width="41.5" height="41.5" rx="12"></rect>
		<rect id="Layer" class="s1" x="164.1" y="87.3" width="41.5" height="41.5" rx="12"></rect>
		<g id="Layer">
			<path id="Layer" class="s2" d="m149.6 270.7l-3.7-0.1-1.6-14.6 5.5 0.1-0.2 14.6z"/>
			<path id="Layer" class="s3" d="m138.5 275.2l5.9-4v-2.7l1.3 0.1 4 0.3 0.9 0.1 0.7 9.3h-2.8l-0.4-2.6-1.3 2.6-7.4-0.1c-0.9 0-1.6-0.7-1.6-1.6 0-0.6 0.3-1.1 0.7-1.4z"/>
		</g>
		<g id="Layer">
			<path id="Layer" class="s2" d="m168.5 270.7l-3.7-0.1-1.7-14.6 5.5 0.1-0.1 14.6z"/>
			<path id="Layer" class="s3" d="m157.3 275.2l5.9-4 0.1-2.7 1.2 0.1 4 0.3 0.9 0.1 0.7 9.3h-2.7l-0.5-2.6-1.3 2.6-7.3-0.1c-1 0-1.7-0.7-1.7-1.6 0-0.6 0.3-1.1 0.7-1.4z"/>
		</g>
		<path id="Layer" class="s3" d="m135.1 152.6l15 0.5 14.2 3.1c0 0-1.4 1.7 3.3 6.5 0 0 6.4 11 1.9 21.8l-1.9 42.9c0 0 5.6 30.3 1.3 39.9l-5.5 0.4-9.5-39.9-4.6-43-2.2 42.3c0 0 8.5 29.1 3.1 40.6l-6-0.4-10.3-40.2c0 0-4.5-46.4-3.8-55.3 0.6-8.8 5-19.2 5-19.2z"/>
		<g id="Layer">
			<path id="Layer" class="s2" d="m190.2 87.5c0.2 1 0.1 2-0.4 2.8l-0.4 10.8-5.4-2.5 0.3-7c-0.7-0.5-1.3-1.3-1.6-2.2-0.5-2.1 0.7-4.2 2.8-4.7 2-0.5 4.1 0.7 4.7 2.8z"/>
			<path id="Layer" class="s4" d="m155.4 109.9c-1.2-1.2-1.8-2.7-1.9-4.3 0-2.3 1.1-4.3 3-5.4 2.2-1.4 4.9-1.2 7 0.3l16.9 12.8 3-18.4 6.5 2.1-1.5 23.9c-0.2 1.7-1.1 3.1-2.6 3.9-1.5 0.8-3.2 0.8-4.7 0l-24.4-13.9q-0.8-0.5-1.3-1z"/>
		</g>
		<g id="Layer">
			<path id="Layer" class="s2" d="m129.5 74.4c1.1 1.9 0.5 4.2-1.3 5.3-0.8 0.5-1.8 0.6-2.7 0.5l-4.7 5.2-5.6-2 7.3-8h0.1c0.2-0.9 0.8-1.8 1.7-2.3 1.8-1.1 4.2-0.5 5.2 1.3z"/>
			<path id="Layer" class="s4" d="m131.6 113.3l-27.2-7.3c-1.6-0.5-2.8-1.7-3.3-3.3-0.5-1.6-0.2-3.3 0.9-4.6l15.8-18.1 6 3.1-10.7 15.2 21 2.9c2.5 0.3 4.5 2.1 5.1 4.6 0.6 2.2-0.1 4.4-1.6 5.9-1.2 1.2-2.8 1.8-4.4 1.8q-0.8 0-1.6-0.2z"/>
		</g>
		<path id="Layer" class="s4" d="m170.3 158.9l-38 1.7c-1-1.5-0.7-3.9 0.7-6.9 5.6-11.3 1.4-32.6-1.4-43.7-0.8-3.1 1.3-6.2 4.5-6.5l3.6-0.4 3.3-10.1h11.6l4.8 5.5 8.1 5c-1.4 15.3-7.8 36.9 1.3 47.7 1.9 2.4 2.5 5 1.5 7.7z"/>
		<circle id="Layer" class="s2" cx="147.3" cy="81.9" r="11.3"/>
		<path id="Layer" class="s3" d="m161.9 86.3q-0.1-0.4-0.3-0.9c-0.4-1.1-1.8-1.5-2.8-0.8-0.1 0 0.3-0.2 1.1 1.4-2.2 6-8.4 9.3-16.2 7-1.9-0.5-3.4-2.2-3.6-4.2-0.7 2.3-1.7 4.5-2.9 6.3q-1.1-0.3-1.9-0.8c-5.2 5.4 3.8-12.9 4.2-15.3 0.2-0.7 0.4-1.4-0.2-1.8 0.1 0.7-0.9 1.5-1.3 2q-0.7-0.1-1.6-0.3c-0.9-0.1-1.9-3.7-2.5-4.4-0.7-0.8-0.6-2.2-0.1-3.1 0.5-1 1.5-1.7 2.3-2.4 0.7-0.5 1.4-1 2.1-1.2 0.8-0.2 2.5 0.2 3 0.9 3.3-4.6 20.5 0.3 18.9 6 4.3 8.1 2.9 7.5 1.8 11.6z"/>
		<path id="Layer" class="s3" d="m154.7 70.5l-0.8-4c0-0.3-0.1-0.7 0.1-1 0.2-0.4 0.7-0.6 1.1-0.5 0.5 0 0.8 0.4 1.2 0.5 1.5 0.3 3.6-1.2 4.1 2.6 0.2 1.6 2.8 1.7 3.6 3.1 0.9 1.4 1 3.3-0.2 4.5-0.9 0.8-2.4 0.9-3.6 0.5-1.2-0.5-2.2-1.4-3-2.3-0.8-1-1.6-2.1-2.6-2.9"/>
		<path id="Layer" class="s1" d="m160.7 76.7c-3.1-0.4-5.2-1.6-6.3-3.3-1.4-2.4-0.4-5-0.4-5.1l0.7 0.3c-0.1 0-0.9 2.4 0.3 4.4q1.5 2.4 5.8 3z"/>
	</g>
	<path id="Layer" fill-rule="evenodd" class="s1" d="m175.2 33c-9.1 0-16.5-7.4-16.5-16.5 0-9.1 7.4-16.5 16.5-16.5 9.1 0 16.5 7.4 16.5 16.5 0 9.1-7.4 16.5-16.5 16.5zm9.9-16.5c0-5.5-4.4-9.9-9.9-9.9-5.5 0-9.9 4.4-9.9 9.9 0 5.5 4.4 9.9 9.9 9.9 5.5 0 9.9-4.4 9.9-9.9z"/>
	<path id="Layer" class="s1" d="m200.5 44.2c-0.8 0-1.6-0.3-2.2-0.9l-15.5-14.5c-1.3-1.3-1.4-3.3-0.1-4.7 1.2-1.3 3.3-1.4 4.6-0.1l15.5 14.5c1.3 1.2 1.4 3.3 0.2 4.6-0.7 0.7-1.6 1.1-2.5 1.1z"/>
	<g id="Layer">
		<path id="Layer" class="s0" d="m270.5 270.3c1.1 0.1 1.7-1.3 0.9-2.1l-0.1-0.4q0 0 0 0c1.1-2.8 5-2.7 6.1 0 1 2.4 2.3 4.8 2.6 7.3 0.1 1.1 0.1 2.3-0.2 3.4 2.3-5.1 3.6-10.7 3.6-16.3q0-2.1-0.3-4.2-0.2-1.8-0.5-3.4c-1.2-6.2-4-12-7.9-16.9-1.8-1-3.4-2.6-4.4-4.5-0.3-0.7-0.6-1.5-0.7-2.2 0.2 0 0.8-3.3 0.7-3.5 0.3-0.4 0.8-0.6 1.1-1.1 1.6-2.2 3.9-1.8 5 1.2 2.5 1.3 2.5 3.3 1 5.3-1 1.3-1.1 3-1.9 4.4q0.1 0.2 0.2 0.3 2.4 3.1 4.2 6.6c-0.3-2.6 0.1-5.7 1-7.7 0.9-2.3 2.7-4.2 4.3-6.2 1.9-2.3 5.7-1.3 6 1.7q0 0 0 0.1-0.3 0.2-0.6 0.4c-1.3 0.8-0.9 2.8 0.6 3l0.1 0.1q-0.2 1.2-0.5 2.4c2 7.8-2.3 10.6-8.5 10.8q-0.2 0.1-0.4 0.2 1 2.6 1.5 5.4 0.5 2.4 0.7 4.9 0.2 3.1 0 6.2c0.4-2.3 1.7-4.5 3.5-5.9 2.7-2.2 6.4-3.1 9.3-4.8 1.4-0.9 3.2 0.2 3 1.8v0.1q-0.7 0.3-1.3 0.6-0.3 0.2-0.7 0.4c-1.2 0.9-0.8 2.9 0.7 3.1q0.1 0 0.1 0c-0.7 1.8-1.8 3.4-3.1 4.8-1.2 6.8-6.6 7.4-12.4 5.4-0.6 2.8-1.5 5.5-2.7 8h-9.8q0-0.1-0.1-0.3 1.4 0.1 2.7-0.2-1.1-1.3-2.2-2.6 0-0.1 0-0.1-0.6-0.7-1.1-1.4 0-2.1 0.5-4.1 0 0 0 0z"/>
		<path id="Layer" class="s5" d="m0.6 278.4h298.6c0.3 0 0.6 0.3 0.6 0.7 0 0.3-0.3 0.6-0.6 0.6h-298.6c-0.3 0-0.6-0.3-0.6-0.6 0-0.4 0.3-0.7 0.6-0.7z"/>
	</g>
</svg>